ffmpeg started on 2025-05-13 at 10:47:34
Report written to "D:\Convert\FFMetrics\reports\ssim_report-6.txt"
Log level: 32
Command line:
ffmpeg -hide_banner -nostdin -i "G:\\\xc0\xed\xe8\xec\xe5\\\xce\xed\xe3\xee\xe8\xed\xe3\xe8\\!_35_\xcb\xe5\xf2\xee_2024\\DreamCast-1\\\xdf \xf1\xf2\xe0\xeb \xf1\xe0\xec\xfb\xec \xf1\xe8\xeb\xfc\xed\xfb\xec \xf1 \xef\xf0\xee\xe2\xe0\xeb\xfc\xed\xfb\xec \xed\xe0\xe2\xfb\xea\xee\xec \xab\xed\xe5\xed\xee\xf0\xec\xe0\xeb\xfc\xed\xee\xe5 \xf1\xee\xf1\xf2\xee\xff\xed\xe8\xe5\xbb, \xff \xf0\xe0\xe7\xf0\xf3\xf8\xf3 \xe2\xf1\xb8\\[DC] Hazurewaku - 06_Telegram_HEVC.mkv" -i "G:\\\xc0\xed\xe8\xec\xe5\\\xce\xed\xe3\xee\xe8\xed\xe3\xe8\\!_35_\xcb\xe5\xf2\xee_2024\\DreamCast-1\\\xdf \xf1\xf2\xe0\xeb \xf1\xe0\xec\xfb\xec \xf1\xe8\xeb\xfc\xed\xfb\xec \xf1 \xef\xf0\xee\xe2\xe0\xeb\xfc\xed\xfb\xec \xed\xe0\xe2\xfb\xea\xee\xec \xab\xed\xe5\xed\xee\xf0\xec\xe0\xeb\xfc\xed\xee\xe5 \xf1\xee\xf1\xf2\xee\xff\xed\xe8\xe5\xbb, \xff \xf0\xe0\xe7\xf0\xf3\xf8\xf3 \xe2\xf1\xb8\\[DC] Hazurewaku - 06_Telegram.mp4" -lavfi "[0:v]settb=AVTB,setpts=PTS-STARTPTS,format=pix_fmts=yuv420p10,fps=24000/1001,scale=1920:1080:flags=bicubic[main];[1:v]settb=AVTB,setpts=PTS-STARTPTS,format=pix_fmts=yuv420p,fps=24000/1001,scale=1920:1080:flags=bicubic[ref];[main][ref]ssim=eof_action=endall:stats_file='D\\:/Convert/FFMetrics/logs/ssim_logfile-6.txt'" -f null -
Input #0, matroska,webm, from 'G:\Аниме\Онгоинги\!_35_Лето_2024\DreamCast-1\Я стал самым сильным с провальным навыком «ненормальное состояние», я разрушу всё\[DC] Hazurewaku - 06_Telegram_HEVC.mkv':
  Metadata:
    COMPATIBLE_BRANDS: isomiso2avc1mp41
    MAJOR_BRAND     : isom
    MINOR_VERSION   : 512
    ENCODER         : Lavf61.7.100
  Duration: 00:24:17.71, start: -0.021000, bitrate: 1388 kb/s
  Stream #0:0: Video: hevc (Main 10), yuv420p10le(tv, bt709, progressive), 1920x1080 [SAR 1:1 DAR 16:9], 23.98 fps, 23.98 tbr, 1k tbn (default)
      Metadata:
        HANDLER_NAME    : VideoHandler
        VENDOR_ID       : [0][0][0][0]
        ENCODER         : Lavc61.19.100 libx265
        BPS             : 1191381
        DURATION        : 00:24:16.538708333
        NUMBER_OF_FRAMES: 34922
        NUMBER_OF_BYTES : 216911566
        _STATISTICS_WRITING_APP: mkvpropedit v66.0.0 ('Josie') 64-bit
        _STATISTICS_WRITING_DATE_UTC: 2025-05-11 15:20:45
        _STATISTICS_TAGS: BPS DURATION NUMBER_OF_FRAMES NUMBER_OF_BYTES
  Stream #0:1: Audio: aac (LC), 48000 Hz, stereo, fltp (default)
      Metadata:
        HANDLER_NAME    : SoundHandler
        VENDOR_ID       : [0][0][0][0]
        ENCODER         : Lavc61.19.100 aac
        BPS             : 194024
        DURATION        : 00:24:17.706000000
        NUMBER_OF_FRAMES: 68331
        NUMBER_OF_BYTES : 35353798
        _STATISTICS_WRITING_APP: mkvpropedit v66.0.0 ('Josie') 64-bit
        _STATISTICS_WRITING_DATE_UTC: 2025-05-11 15:20:45
        _STATISTICS_TAGS: BPS DURATION NUMBER_OF_FRAMES NUMBER_OF_BYTES
Input #1, mov,mp4,m4a,3gp,3g2,mj2, from 'G:\Аниме\Онгоинги\!_35_Лето_2024\DreamCast-1\Я стал самым сильным с провальным навыком «ненормальное состояние», я разрушу всё\[DC] Hazurewaku - 06_Telegram.mp4':
  Metadata:
    major_brand     : isom
    minor_version   : 512
    compatible_brands: isomiso2avc1mp41
    encoder         : Lavf61.1.100
  Duration: 00:24:17.65, start: 0.000000, bitrate: 3670 kb/s
  Stream #1:0[0x1](und): Video: h264 (High) (avc1 / 0x31637661), yuv420p(tv, bt709, progressive), 1920x1080 [SAR 1:1 DAR 16:9], 3525 kb/s, 23.98 fps, 23.98 tbr, 24k tbn (default)
      Metadata:
        handler_name    : VideoHandler
        vendor_id       : [0][0][0][0]
        encoder         : Lavc61.3.100 h264_qsv
  Stream #1:1[0x2](und): Audio: aac (HE-AACv2) (mp4a / 0x6134706D), 48000 Hz, stereo, fltp, 144 kb/s (default)
      Metadata:
        handler_name    : SoundHandler
        vendor_id       : [0][0][0][0]
Stream mapping:
  Stream #0:0 (hevc) -> settb:default
  Stream #1:0 (h264) -> settb:default
  ssim:default -> Stream #0:0 (wrapped_avframe)
  Stream #0:1 -> #0:1 (aac (native) -> pcm_s16le (native))
Output #0, null, to 'pipe:':
  Metadata:
    COMPATIBLE_BRANDS: isomiso2avc1mp41
    MAJOR_BRAND     : isom
    MINOR_VERSION   : 512
    encoder         : Lavf61.7.100
  Stream #0:0: Video: wrapped_avframe, yuv420p10le(tv, bt709, progressive), 1920x1080 [SAR 1:1 DAR 16:9], q=2-31, 200 kb/s, 23.98 fps, 23.98 tbn
      Metadata:
        encoder         : Lavc61.19.100 wrapped_avframe
  Stream #0:1: Audio: pcm_s16le, 48000 Hz, stereo, s16, 1536 kb/s (default)
      Metadata:
        HANDLER_NAME    : SoundHandler
        VENDOR_ID       : [0][0][0][0]
        _STATISTICS_TAGS: BPS DURATION NUMBER_OF_FRAMES NUMBER_OF_BYTES
        BPS             : 194024
        DURATION        : 00:24:17.706000000
        NUMBER_OF_FRAMES: 68331
        NUMBER_OF_BYTES : 35353798
        _STATISTICS_WRITING_APP: mkvpropedit v66.0.0 ('Josie') 64-bit
        _STATISTICS_WRITING_DATE_UTC: 2025-05-11 15:20:45
        encoder         : Lavc61.19.100 pcm_s16le
frame=  166 fps=0.0 q=-0.0 size=N/A time=00:00:06.92 bitrate=N/A speed=13.6x    frame=  416 fps=404 q=-0.0 size=N/A time=00:00:17.35 bitrate=N/A speed=16.9x    frame=  656 fps=428 q=-0.0 size=N/A time=00:00:27.36 bitrate=N/A speed=17.8x    frame=  913 fps=443 q=-0.0 size=N/A time=00:00:38.07 bitrate=N/A speed=18.5x    frame= 1170 fps=456 q=-0.0 size=N/A time=00:00:48.79 bitrate=N/A speed=  19x    frame= 1423 fps=461 q=-0.0 size=N/A time=00:00:59.35 bitrate=N/A speed=19.2x    frame= 1681 fps=468 q=-0.0 size=N/A time=00:01:10.11 bitrate=N/A speed=19.5x    frame= 1868 fps=454 q=-0.0 size=N/A time=00:01:17.91 bitrate=N/A speed=18.9x    frame= 2108 fps=454 q=-0.0 size=N/A time=00:01:27.92 bitrate=N/A speed=18.9x    frame= 2384 fps=463 q=-0.0 size=N/A time=00:01:39.43 bitrate=N/A speed=19.3x    frame= 2620 fps=462 q=-0.0 size=N/A time=00:01:49.27 bitrate=N/A speed=19.3x    frame= 2825 fps=457 q=-0.0 size=N/A time=00:01:57.82 bitrate=N/A speed=  19x    frame= 3045 fps=454 q=-0.0 size=N/A time=00:02:07.00 bitrate=N/A speed=  19x    frame= 3252 fps=451 q=-0.0 size=N/A time=00:02:15.63 bitrate=N/A speed=18.8x    frame= 3408 fps=441 q=-0.0 size=N/A time=00:02:22.14 bitrate=N/A speed=18.4x    frame= 3576 fps=434 q=-0.0 size=N/A time=00:02:29.14 bitrate=N/A speed=18.1x    frame= 3797 fps=433 q=-0.0 size=N/A time=00:02:38.36 bitrate=N/A speed=18.1x    frame= 3992 fps=431 q=-0.0 size=N/A time=00:02:46.49 bitrate=N/A speed=  18x    frame= 4191 fps=428 q=-0.0 size=N/A time=00:02:54.79 bitrate=N/A speed=17.8x    frame= 4370 fps=424 q=-0.0 size=N/A time=00:03:02.26 bitrate=N/A speed=17.7x    frame= 4543 fps=420 q=-0.0 size=N/A time=00:03:09.48 bitrate=N/A speed=17.5x    frame= 4707 fps=415 q=-0.0 size=N/A time=00:03:16.32 bitrate=N/A speed=17.3x    frame= 4919 fps=415 q=-0.0 size=N/A time=00:03:25.16 bitrate=N/A speed=17.3x    frame= 5121 fps=414 q=-0.0 size=N/A time=00:03:33.58 bitrate=N/A speed=17.3x    frame= 5309 fps=412 q=-0.0 size=N/A time=00:03:41.42 bitrate=N/A speed=17.2x    frame= 5508 fps=411 q=-0.0 size=N/A time=00:03:49.72 bitrate=N/A speed=17.1x    frame= 5717 fps=411 q=-0.0 size=N/A time=00:03:58.44 bitrate=N/A speed=17.1x    frame= 5962 fps=413 q=-0.0 size=N/A time=00:04:08.66 bitrate=N/A speed=17.2x    frame= 6176 fps=413 q=-0.0 size=N/A time=00:04:17.59 bitrate=N/A speed=17.2x    frame= 6365 fps=411 q=-0.0 size=N/A time=00:04:25.47 bitrate=N/A speed=17.2x    frame= 6612 fps=414 q=-0.0 size=N/A time=00:04:35.77 bitrate=N/A speed=17.2x    frame= 6847 fps=415 q=-0.0 size=N/A time=00:04:45.57 bitrate=N/A speed=17.3x    frame= 7089 fps=416 q=-0.0 size=N/A time=00:04:55.67 bitrate=N/A speed=17.4x    frame= 7330 fps=418 q=-0.0 size=N/A time=00:05:05.72 bitrate=N/A speed=17.4x    frame= 7579 fps=420 q=-0.0 size=N/A time=00:05:16.10 bitrate=N/A speed=17.5x    frame= 7824 fps=421 q=-0.0 size=N/A time=00:05:26.32 bitrate=N/A speed=17.6x    frame= 8070 fps=423 q=-0.0 size=N/A time=00:05:36.58 bitrate=N/A speed=17.6x    frame= 8331 fps=425 q=-0.0 size=N/A time=00:05:47.47 bitrate=N/A speed=17.7x    frame= 8573 fps=426 q=-0.0 size=N/A time=00:05:57.56 bitrate=N/A speed=17.8x    frame= 8804 fps=427 q=-0.0 size=N/A time=00:06:07.20 bitrate=N/A speed=17.8x    frame= 9049 fps=428 q=-0.0 size=N/A time=00:06:17.41 bitrate=N/A speed=17.9x    frame= 9291 fps=429 q=-0.0 size=N/A time=00:06:27.51 bitrate=N/A speed=17.9x    frame= 9516 fps=429 q=-0.0 size=N/A time=00:06:36.89 bitrate=N/A speed=17.9x    frame= 9759 fps=430 q=-0.0 size=N/A time=00:06:47.03 bitrate=N/A speed=17.9x    frame= 9981 fps=430 q=-0.0 size=N/A time=00:06:56.29 bitrate=N/A speed=17.9x    frame=10219 fps=431 q=-0.0 size=N/A time=00:07:06.21 bitrate=N/A speed=  18x    frame=10449 fps=431 q=-0.0 size=N/A time=00:07:15.81 bitrate=N/A speed=  18x    frame=10679 fps=431 q=-0.0 size=N/A time=00:07:25.40 bitrate=N/A speed=  18x    frame=10907 fps=431 q=-0.0 size=N/A time=00:07:34.91 bitrate=N/A speed=  18x    frame=11162 fps=433 q=-0.0 size=N/A time=00:07:45.54 bitrate=N/A speed=  18x    frame=11423 fps=434 q=-0.0 size=N/A time=00:07:56.43 bitrate=N/A speed=18.1x    frame=11686 fps=435 q=-0.0 size=N/A time=00:08:07.40 bitrate=N/A speed=18.2x    frame=11950 fps=437 q=-0.0 size=N/A time=00:08:18.41 bitrate=N/A speed=18.2x    frame=12221 fps=438 q=-0.0 size=N/A time=00:08:29.71 bitrate=N/A speed=18.3x    frame=12466 fps=439 q=-0.0 size=N/A time=00:08:39.93 bitrate=N/A speed=18.3x    frame=12721 fps=440 q=-0.0 size=N/A time=00:08:50.57 bitrate=N/A speed=18.3x    frame=12974 fps=441 q=-0.0 size=N/A time=00:09:01.12 bitrate=N/A speed=18.4x    frame=13215 fps=441 q=-0.0 size=N/A time=00:09:11.17 bitrate=N/A speed=18.4x    frame=13452 fps=442 q=-0.0 size=N/A time=00:09:21.06 bitrate=N/A speed=18.4x    frame=13708 fps=442 q=-0.0 size=N/A time=00:09:31.73 bitrate=N/A speed=18.5x    frame=13941 fps=443 q=-0.0 size=N/A time=00:09:41.49 bitrate=N/A speed=18.5x    frame=14204 fps=444 q=-0.0 size=N/A time=00:09:52.42 bitrate=N/A speed=18.5x    frame=14448 fps=444 q=-0.0 size=N/A time=00:10:02.60 bitrate=N/A speed=18.5x    frame=14686 fps=444 q=-0.0 size=N/A time=00:10:12.52 bitrate=N/A speed=18.5x    frame=14932 fps=445 q=-0.0 size=N/A time=00:10:22.78 bitrate=N/A speed=18.6x    frame=15185 fps=446 q=-0.0 size=N/A time=00:10:33.34 bitrate=N/A speed=18.6x    frame=15465 fps=447 q=-0.0 size=N/A time=00:10:45.01 bitrate=N/A speed=18.6x    frame=15735 fps=448 q=-0.0 size=N/A time=00:10:56.28 bitrate=N/A speed=18.7x    frame=16005 fps=449 q=-0.0 size=N/A time=00:11:07.54 bitrate=N/A speed=18.7x    frame=16238 fps=449 q=-0.0 size=N/A time=00:11:17.25 bitrate=N/A speed=18.7x    frame=16504 fps=450 q=-0.0 size=N/A time=00:11:28.35 bitrate=N/A speed=18.8x    frame=16746 fps=450 q=-0.0 size=N/A time=00:11:38.44 bitrate=N/A speed=18.8x    frame=17012 fps=451 q=-0.0 size=N/A time=00:11:49.54 bitrate=N/A speed=18.8x    frame=17271 fps=452 q=-0.0 size=N/A time=00:12:00.34 bitrate=N/A speed=18.8x    frame=17505 fps=452 q=-0.0 size=N/A time=00:12:10.10 bitrate=N/A speed=18.8x    frame=17742 fps=452 q=-0.0 size=N/A time=00:12:19.98 bitrate=N/A speed=18.8x    frame=17993 fps=452 q=-0.0 size=N/A time=00:12:30.45 bitrate=N/A speed=18.9x    frame=18246 fps=453 q=-0.0 size=N/A time=00:12:41.01 bitrate=N/A speed=18.9x    frame=18469 fps=453 q=-0.0 size=N/A time=00:12:50.31 bitrate=N/A speed=18.9x    frame=18713 fps=453 q=-0.0 size=N/A time=00:13:00.48 bitrate=N/A speed=18.9x    frame=18965 fps=453 q=-0.0 size=N/A time=00:13:10.99 bitrate=N/A speed=18.9x    frame=19211 fps=454 q=-0.0 size=N/A time=00:13:21.25 bitrate=N/A speed=18.9x    frame=19416 fps=453 q=-0.0 size=N/A time=00:13:29.80 bitrate=N/A speed=18.9x    frame=19635 fps=453 q=-0.0 size=N/A time=00:13:38.94 bitrate=N/A speed=18.9x    frame=19849 fps=452 q=-0.0 size=N/A time=00:13:47.86 bitrate=N/A speed=18.9x    frame=20064 fps=452 q=-0.0 size=N/A time=00:13:56.83 bitrate=N/A speed=18.8x    frame=20289 fps=452 q=-0.0 size=N/A time=00:14:06.22 bitrate=N/A speed=18.8x    frame=20530 fps=452 q=-0.0 size=N/A time=00:14:16.27 bitrate=N/A speed=18.8x    frame=20752 fps=451 q=-0.0 size=N/A time=00:14:25.53 bitrate=N/A speed=18.8x    frame=20989 fps=452 q=-0.0 size=N/A time=00:14:35.41 bitrate=N/A speed=18.8x    frame=21223 fps=452 q=-0.0 size=N/A time=00:14:45.17 bitrate=N/A speed=18.8x    frame=21458 fps=452 q=-0.0 size=N/A time=00:14:54.97 bitrate=N/A speed=18.8x    frame=21696 fps=452 q=-0.0 size=N/A time=00:15:04.90 bitrate=N/A speed=18.8x    frame=21935 fps=452 q=-0.0 size=N/A time=00:15:14.87 bitrate=N/A speed=18.8x    frame=22182 fps=452 q=-0.0 size=N/A time=00:15:25.17 bitrate=N/A speed=18.9x    frame=22445 fps=453 q=-0.0 size=N/A time=00:15:36.14 bitrate=N/A speed=18.9x    frame=22709 fps=453 q=-0.0 size=N/A time=00:15:47.15 bitrate=N/A speed=18.9x    frame=22920 fps=453 q=-0.0 size=N/A time=00:15:55.95 bitrate=N/A speed=18.9x    frame=23135 fps=453 q=-0.0 size=N/A time=00:16:04.92 bitrate=N/A speed=18.9x    frame=23357 fps=452 q=-0.0 size=N/A time=00:16:14.18 bitrate=N/A speed=18.9x    frame=23601 fps=453 q=-0.0 size=N/A time=00:16:24.35 bitrate=N/A speed=18.9x    frame=23810 fps=452 q=-0.0 size=N/A time=00:16:33.07 bitrate=N/A speed=18.9x    frame=23984 fps=451 q=-0.0 size=N/A time=00:16:40.33 bitrate=N/A speed=18.8x    frame=24170 fps=450 q=-0.0 size=N/A time=00:16:48.09 bitrate=N/A speed=18.8x    frame=24381 fps=450 q=-0.0 size=N/A time=00:16:56.89 bitrate=N/A speed=18.8x    frame=24602 fps=450 q=-0.0 size=N/A time=00:17:06.10 bitrate=N/A speed=18.8x    frame=24830 fps=449 q=-0.0 size=N/A time=00:17:15.61 bitrate=N/A speed=18.7x    frame=25065 fps=450 q=-0.0 size=N/A time=00:17:25.41 bitrate=N/A speed=18.8x    frame=25302 fps=450 q=-0.0 size=N/A time=00:17:35.30 bitrate=N/A speed=18.8x    frame=25510 fps=449 q=-0.0 size=N/A time=00:17:43.97 bitrate=N/A speed=18.7x    frame=25684 fps=448 q=-0.0 size=N/A time=00:17:51.23 bitrate=N/A speed=18.7x    frame=25941 fps=449 q=-0.0 size=N/A time=00:18:01.95 bitrate=N/A speed=18.7x    frame=26171 fps=449 q=-0.0 size=N/A time=00:18:11.54 bitrate=N/A speed=18.7x    frame=26401 fps=448 q=-0.0 size=N/A time=00:18:21.14 bitrate=N/A speed=18.7x    frame=26657 fps=449 q=-0.0 size=N/A time=00:18:31.81 bitrate=N/A speed=18.7x    frame=26905 fps=449 q=-0.0 size=N/A time=00:18:42.16 bitrate=N/A speed=18.7x    frame=27130 fps=449 q=-0.0 size=N/A time=00:18:51.54 bitrate=N/A speed=18.7x    frame=27396 fps=450 q=-0.0 size=N/A time=00:19:02.64 bitrate=N/A speed=18.8x    frame=27662 fps=450 q=-0.0 size=N/A time=00:19:13.73 bitrate=N/A speed=18.8x    frame=27931 fps=451 q=-0.0 size=N/A time=00:19:24.95 bitrate=N/A speed=18.8x    frame=28200 fps=451 q=-0.0 size=N/A time=00:19:36.17 bitrate=N/A speed=18.8x    frame=28443 fps=452 q=-0.0 size=N/A time=00:19:46.31 bitrate=N/A speed=18.8x    frame=28620 fps=451 q=-0.0 size=N/A time=00:19:53.69 bitrate=N/A speed=18.8x    frame=28843 fps=450 q=-0.0 size=N/A time=00:20:02.99 bitrate=N/A speed=18.8x    frame=29062 fps=450 q=-0.0 size=N/A time=00:20:12.12 bitrate=N/A speed=18.8x    frame=29293 fps=450 q=-0.0 size=N/A time=00:20:21.76 bitrate=N/A speed=18.8x    frame=29527 fps=450 q=-0.0 size=N/A time=00:20:31.52 bitrate=N/A speed=18.8x    frame=29748 fps=450 q=-0.0 size=N/A time=00:20:40.73 bitrate=N/A speed=18.8x    frame=29969 fps=450 q=-0.0 size=N/A time=00:20:49.95 bitrate=N/A speed=18.8x    frame=30229 fps=450 q=-0.0 size=N/A time=00:21:00.80 bitrate=N/A speed=18.8x    frame=30495 fps=451 q=-0.0 size=N/A time=00:21:11.89 bitrate=N/A speed=18.8x    frame=30765 fps=451 q=-0.0 size=N/A time=00:21:23.15 bitrate=N/A speed=18.8x    frame=31043 fps=452 q=-0.0 size=N/A time=00:21:34.75 bitrate=N/A speed=18.9x    frame=31306 fps=453 q=-0.0 size=N/A time=00:21:45.72 bitrate=N/A speed=18.9x    frame=31562 fps=453 q=-0.0 size=N/A time=00:21:56.39 bitrate=N/A speed=18.9x    frame=31773 fps=453 q=-0.0 size=N/A time=00:22:05.19 bitrate=N/A speed=18.9x    frame=31975 fps=452 q=-0.0 size=N/A time=00:22:13.62 bitrate=N/A speed=18.9x    frame=32166 fps=452 q=-0.0 size=N/A time=00:22:21.59 bitrate=N/A speed=18.8x    frame=32384 fps=451 q=-0.0 size=N/A time=00:22:30.68 bitrate=N/A speed=18.8x    frame=32600 fps=451 q=-0.0 size=N/A time=00:22:39.69 bitrate=N/A speed=18.8x    frame=32763 fps=450 q=-0.0 size=N/A time=00:22:46.49 bitrate=N/A speed=18.8x    frame=32939 fps=449 q=-0.0 size=N/A time=00:22:53.83 bitrate=N/A speed=18.7x    frame=33126 fps=449 q=-0.0 size=N/A time=00:23:01.63 bitrate=N/A speed=18.7x    frame=33325 fps=448 q=-0.0 size=N/A time=00:23:09.93 bitrate=N/A speed=18.7x    frame=33493 fps=447 q=-0.0 size=N/A time=00:23:16.93 bitrate=N/A speed=18.7x    frame=33678 fps=447 q=-0.0 size=N/A time=00:23:24.65 bitrate=N/A speed=18.6x    frame=33876 fps=446 q=-0.0 size=N/A time=00:23:32.91 bitrate=N/A speed=18.6x    frame=34133 fps=447 q=-0.0 size=N/A time=00:23:43.63 bitrate=N/A speed=18.6x    frame=34365 fps=447 q=-0.0 size=N/A time=00:23:53.30 bitrate=N/A speed=18.6x    frame=34612 fps=447 q=-0.0 size=N/A time=00:24:03.60 bitrate=N/A speed=18.6x    frame=34866 fps=447 q=-0.0 size=N/A time=00:24:14.20 bitrate=N/A speed=18.7x    [Parsed_ssim_10 @ 000001b64142be40] SSIM Y:0.994675 (22.736472) U:0.993992 (22.212344) V:0.994205 (22.369463) All:0.994482 (22.582560)
[out#0/null @ 000001b6413e6140] video:15006KiB audio:273324KiB subtitle:0KiB other streams:0KiB global headers:0KiB muxing overhead: unknown
frame=34922 fps=447 q=-0.0 Lsize=N/A time=00:24:16.53 bitrate=N/A speed=18.7x    
